<?xml version="1.0" encoding="utf-8"?>
<!-- Generator: Adobe Illustrator 24.0.0, SVG Export Plug-In . SVG Version: 6.00 Build 0)  -->
<svg version="1.1" xmlns="http://www.w3.org/2000/svg" xmlns:xlink="http://www.w3.org/1999/xlink" x="0px" y="0px"
	 viewBox="0 0 256 256" enable-background="new 0 0 256 256" xml:space="preserve">
<g id="Layer_1">
</g>
<g id="Layer_2">
</g>
<g id="Layer_3">
</g>
<g id="Layer_4">
</g>
<g id="Layer_5">
</g>
<g id="Layer_6">
</g>
<g id="Layer_7">
</g>
<g id="Layer_8">
</g>
<g id="Layer_9">
</g>
<g id="Layer_10">
</g>
<g id="Layer_11">
</g>
<g id="Layer_12">
</g>
<g id="Layer_13">
</g>
<g id="Layer_14">
</g>
<g id="Layer_15">
</g>
<g id="Layer_16">
</g>
<g id="Layer_17">
</g>
<g id="Layer_18">
</g>
<g id="Layer_19">
</g>
<g id="Layer_20">
</g>
<g id="Layer_21">
</g>
<g id="Layer_22">
</g>
<g id="Layer_23">
</g>
<g id="Layer_24">
</g>
<g id="Layer_25">
</g>
<g id="Layer_26">
</g>
<g id="Layer_27">
</g>
<g id="Layer_28">
</g>
<g id="Layer_29">
</g>
<g id="Layer_30">
</g>
<g id="Layer_31">
</g>
<g id="Layer_32">
</g>
<g id="Layer_33">
</g>
<g id="Layer_34">
</g>
<g id="Layer_35">
</g>
<g id="Layer_36">
</g>
<g id="Layer_37">
</g>
<g id="Layer_38">
</g>
<g id="Layer_39">
</g>
<g id="Layer_40">
</g>
<g id="Layer_41">
</g>
<g id="Layer_42">
</g>
<g id="Layer_43">
</g>
<g id="Layer_44">
</g>
<g id="Layer_45">
	<g>
		<g>
			<g>
				<path fill="#F5C84C" d="M224.439,167.85c-4.5-0.8-8-4.3-8.9-8.7c0-0.2-0.4-0.2-0.4,0c-0.9,4.4-4.4,7.9-8.9,8.7
					c-0.2,0-0.2,0.3,0,0.4c4.5,0.8,8,4.3,8.9,8.7c0,0.2,0.4,0.2,0.4,0c0.9-4.4,4.4-7.9,8.9-8.7
					C224.639,168.15,224.639,167.85,224.439,167.85z"/>
			</g>
		</g>
		<g>
			<g>
				<path fill="#F98FA6" d="M166.536,160.797l-5.018-3.976c-0.841-0.666-2.062-0.524-2.728,0.316l-11.783,14.872
					c-0.666,0.84-0.524,2.061,0.316,2.727l5.019,3.976c0.84,0.666,2.061,0.524,2.727-0.316l11.783-14.872
					C167.518,162.685,167.377,161.463,166.536,160.797z"/>
			</g>
		</g>
		<g>
			<g>
				<path fill="#FC657E" d="M213.185,199.581l-46.075-36.506c-0.067,0.157-0.147,0.31-0.258,0.45l-11.783,14.872
					c-0.111,0.14-0.242,0.253-0.379,0.354l19.537,15.479c2.345,1.858,2.476,5.353,0.296,7.402c-1.693,1.591-3.234,3.411-4.577,5.459
					c-7.847,11.961-6.036,28.114,4.294,38.008c12.941,12.395,33.373,10.774,44.274-2.89
					C228.938,229.144,226.286,209.961,213.185,199.581z"/>
			</g>
		</g>
		<g>
			<g>
				<path fill="#F98FA6" d="M207.485,207.823c-8.644-6.849-21.248-5.388-28.096,3.256c-6.848,8.644-5.388,21.248,3.256,28.096
					c8.644,6.849,21.248,5.388,28.096-3.256C217.589,227.276,216.128,214.672,207.485,207.823z"/>
			</g>
		</g>
		<g>
			<g>
				<path fill="#EF4460" d="M177.64,171.418l-3.536,4.463c-0.791,0.998-0.623,2.448,0.375,3.239l10.494,8.315
					c0.998,0.791,2.448,0.623,3.239-0.375l3.536-4.463L177.64,171.418z"/>
			</g>
		</g>
		<g>
			<g>
				<path fill="#B26E2B" d="M192.383,183.099V49.592c0-8.881-7.225-16.106-16.106-16.106h-39.126v7.315
					c0,5.45-4.459,9.909-9.909,9.909H86.695c-5.45,0-9.909-4.459-9.909-9.909v-7.315H37.661c-8.881,0-16.106,7.225-16.106,16.106
					v187.802c0,8.881,7.225,16.106,16.106,16.106h138.616c2.845,0,5.516-0.748,7.838-2.048c-3.503-1.379-6.858-3.463-9.875-6.352
					c-12.135-11.622-12.365-31.579,0.283-43.467c2.18-2.049,2.049-5.544-0.296-7.402l-19.537-15.479c0,0,0,0,0,0
					c-0.688,0.504-1.648,0.517-2.349-0.038l-5.019-3.976c-0.84-0.666-0.982-1.887-0.316-2.727l11.783-14.872
					c0.666-0.841,1.887-0.982,2.728-0.316l5.018,3.976c0.7,0.555,0.907,1.493,0.574,2.278
					C174.815,169.18,183.606,176.145,192.383,183.099z"/>
			</g>
		</g>
		<g>
			<g>
				<path fill="#EDF4FC" d="M180.749,173.881V49.592c0-2.424-2.048-4.471-4.471-4.471h-40.165c-1.616,3.291-4.973,5.589-8.87,5.589
					H86.695c-3.896,0-7.254-2.299-8.87-5.589H37.661c-2.424,0-4.471,2.048-4.471,4.471v187.802c0,2.424,2.048,4.472,4.471,4.472
					h133.674c-9.166-11.822-8.353-29.385,3.188-40.233c2.18-2.049,2.049-5.544-0.296-7.402l-19.537-15.479c0,0,0,0,0,0
					c-0.688,0.504-1.648,0.517-2.349-0.038l-5.019-3.976c-0.84-0.666-0.982-1.887-0.316-2.727l11.783-14.872
					c0.666-0.841,1.887-0.982,2.728-0.316l5.018,3.976c0.7,0.555,0.907,1.493,0.574,2.278
					C171.384,166.461,175.994,170.114,180.749,173.881z"/>
			</g>
		</g>
		<g>
			<g>
				<path d="M185.936,250.515c-0.641-1.224-2.151-1.696-3.374-1.056c-1.953,1.022-4.067,1.541-6.284,1.541H37.661
					c-7.503,0-13.606-6.104-13.606-13.606V49.592c0-7.502,6.104-13.606,13.606-13.606h38.402c1.381,0,2.5-1.119,2.5-2.5
					s-1.119-2.5-2.5-2.5H37.661c-10.26,0-18.606,8.347-18.606,18.606v187.802c0,10.259,8.347,18.606,18.606,18.606h138.616
					c2.99,0,5.965-0.73,8.603-2.111C186.104,253.249,186.576,251.738,185.936,250.515z"/>
			</g>
		</g>
		<g>
			<g>
				<path d="M176.277,30.986h-38.11c-1.381,0-2.5,1.119-2.5,2.5s1.119,2.5,2.5,2.5h38.11c7.502,0,13.605,6.104,13.605,13.606V182.25
					c0,1.381,1.119,2.5,2.5,2.5s2.5-1.119,2.5-2.5V49.592C194.883,39.333,186.536,30.986,176.277,30.986z"/>
			</g>
		</g>
		<g>
			<g>
				<path d="M170.406,239.366H37.661c-1.051,0-1.972-0.921-1.972-1.972V49.592c0-1.05,0.921-1.972,1.972-1.972h39.652
					c1.381,0,2.5-1.119,2.5-2.5s-1.119-2.5-2.5-2.5H37.661c-3.779,0-6.972,3.193-6.972,6.972v187.802
					c0,3.779,3.192,6.972,6.972,6.972h132.745c1.381,0,2.5-1.119,2.5-2.5S171.787,239.366,170.406,239.366z"/>
			</g>
		</g>
		<g>
			<g>
				<path d="M176.277,42.62H136.72c-1.381,0-2.5,1.119-2.5,2.5s1.119,2.5,2.5,2.5h39.558c1.051,0,1.972,0.921,1.972,1.972v123.283
					c0,1.381,1.119,2.5,2.5,2.5s2.5-1.119,2.5-2.5V49.592C183.249,45.813,180.057,42.62,176.277,42.62z"/>
			</g>
		</g>
		<g>
			<g>
				<path fill="#5290DB" d="M127.243,22.535H86.695c-5.45,0-9.909,4.459-9.909,9.909v8.357c0,5.45,4.459,9.909,9.909,9.909h40.548
					c5.45,0,9.909-4.459,9.909-9.909v-8.357C137.152,26.994,132.693,22.535,127.243,22.535z"/>
			</g>
		</g>
		<g>
			<g>
				<path d="M120.775,20.666l-5.185-8.719c-1.828-3.076-5.057-4.912-8.636-4.913c0,0,0,0-0.001,0c-3.578,0-6.808,1.836-8.637,4.913
					l-5.187,8.722c-0.706,1.187-0.316,2.721,0.871,3.427c0.4,0.238,0.841,0.352,1.275,0.352c0.853,0,1.684-0.437,2.15-1.223
					l5.187-8.722c0.92-1.545,2.542-2.468,4.34-2.468h0.001c1.798,0,3.42,0.923,4.339,2.468l5.185,8.719
					c0.705,1.187,2.24,1.576,3.426,0.871C121.092,23.387,121.481,21.853,120.775,20.666z"/>
			</g>
		</g>
		<g>
			<g>
				<g>
					<g>
						<path d="M127.243,20.035H86.695c-6.843,0-12.409,5.566-12.409,12.409v8.357c0,6.842,5.566,12.409,12.409,12.409h40.548
							c6.842,0,12.408-5.566,12.408-12.409v-8.357C139.651,25.601,134.085,20.035,127.243,20.035z M134.651,40.801
							c0,4.085-3.323,7.409-7.408,7.409H86.695c-4.085,0-7.409-3.324-7.409-7.409v-8.357c0-4.085,3.324-7.409,7.409-7.409h40.548
							c4.085,0,7.408,3.324,7.408,7.409V40.801z"/>
					</g>
				</g>
			</g>
		</g>
		<g>
			<g>
				<g>
					<g>
						<path d="M122.72,48.209H91.218c-1.381,0-2.5,1.119-2.5,2.5v2.121c0,1.727,0.246,3.439,0.731,5.091
							C90.849,62.678,95.307,66,100.29,66h13.376c4.871,0,9.144-3.002,10.633-7.473c0.611-1.838,0.921-3.754,0.921-5.697v-2.121
							C125.22,49.329,124.101,48.209,122.72,48.209z M119.555,56.948C118.76,59.334,116.339,61,113.666,61H100.29
							c-2.781,0-5.267-1.846-6.044-4.489c-0.315-1.072-0.49-2.181-0.522-3.301h26.49C120.178,54.485,119.956,55.741,119.555,56.948z
							"/>
					</g>
				</g>
			</g>
		</g>
		<g>
			<g>
				<circle fill="#FC657E" cx="106.969" cy="100.97" r="29.46"/>
			</g>
		</g>
		<g>
			<g>
				<path fill="#FCDD86" d="M117.391,76.201c-3.531,0-6.394,2.863-6.394,6.394c0,3.531,2.862,6.394,6.394,6.394
					c3.531,0,6.394-2.863,6.394-6.394C123.784,79.063,120.922,76.201,117.391,76.201z"/>
			</g>
		</g>
		<g>
			<g>
				<path fill="#FCDD86" d="M113.087,113.405l-8.897-5.004l9.488-10.101c1.942-2.065,1.251-5.424-1.101-6.679l-12.787-6.82
					c-1.549-0.826-3.446-0.618-4.78,0.524l-11.935,10.23c-1.787,1.532-1.994,4.223-0.463,6.01c1.53,1.784,4.22,1.997,6.01,0.462
					l9.724-8.335l5.305,2.829l-9.401,10.007c-1.895,2.018-1.392,5.279,1.017,6.634l8.925,5.021l-7.402,7.971
					c-0.554,0.597-0.891,1.313-1.041,2.058c2.75,1.134,5.709,1.859,8.804,2.11l9.567-10.302
					C115.993,118.004,115.492,114.758,113.087,113.405z"/>
			</g>
		</g>
		<g>
			<g>
				<path fill="#FCDD86" d="M95.267,113.163c-2.409-1.354-2.912-4.616-1.017-6.634l0.077-0.082l-11.66,11.174
					c1.618,2.357,3.571,4.466,5.789,6.26l9.567-9.168L95.267,113.163z"/>
			</g>
		</g>
		<g>
			<g>
				<path fill="#FCDD86" d="M134.45,90.353c-0.552,0.111-1.091,0.331-1.583,0.672l-9.007,6.236l-11.333-5.667l0.05,0.027
					c2.352,1.255,3.043,4.614,1.101,6.679l-2.173,2.314l10.801,5.4c1.389,0.695,3.05,0.58,4.333-0.308l9.718-6.728
					C136.153,95.955,135.496,93.058,134.45,90.353z"/>
			</g>
		</g>
		<g>
			<g>
				<g>
					<g>
						<path d="M117.391,73.701c-4.904,0-8.894,3.99-8.894,8.894s3.989,8.894,8.894,8.894s8.894-3.99,8.894-8.894
							S122.295,73.701,117.391,73.701z M117.391,86.488c-2.146,0-3.894-1.747-3.894-3.894s1.747-3.894,3.894-3.894
							s3.894,1.747,3.894,3.894S119.537,86.488,117.391,86.488z"/>
					</g>
				</g>
			</g>
		</g>
		<g>
			<g>
				<path d="M117.677,116.073c-0.322-2.059-1.549-3.826-3.364-4.847l-6.116-3.44l7.302-7.773c1.436-1.527,2.062-3.605,1.716-5.703
					c-0.344-2.093-1.638-3.923-3.461-4.896l-12.787-6.819c-2.477-1.32-5.451-0.995-7.583,0.832l-11.936,10.23
					c-2.831,2.427-3.159,6.704-0.733,9.535c2.427,2.831,6.703,3.16,9.535,0.733l8.428-7.224l0.916,0.489l-7.164,7.626
					c-1.433,1.525-2.072,3.586-1.755,5.654c0.317,2.069,1.545,3.844,3.368,4.87l6.16,3.465l-5.243,5.646
					c-0.531,0.572-0.956,1.231-1.262,1.96c-0.534,1.273,0.065,2.738,1.339,3.272c1.271,0.535,2.737-0.065,3.272-1.338
					c0.078-0.186,0.184-0.352,0.314-0.493l7.401-7.971c0.521-0.562,0.756-1.331,0.638-2.087c-0.118-0.756-0.576-1.417-1.244-1.792
					l-8.925-5.021c-0.649-0.365-0.828-0.952-0.877-1.269s-0.054-0.93,0.457-1.474l9.4-10.007c0.533-0.567,0.771-1.35,0.645-2.118
					c-0.127-0.768-0.604-1.433-1.29-1.799l-5.305-2.829c-0.91-0.484-2.022-0.362-2.804,0.308l-9.725,8.334
					c-0.737,0.634-1.853,0.547-2.484-0.191c-0.633-0.738-0.547-1.853,0.19-2.485l11.936-10.23c0.556-0.477,1.331-0.56,1.976-0.216
					l12.787,6.819c0.459,0.245,0.788,0.729,0.881,1.295c0.053,0.322,0.068,0.941-0.426,1.467l-9.487,10.101
					c-0.526,0.56-0.766,1.331-0.648,2.09c0.116,0.76,0.575,1.423,1.245,1.8l8.897,5.004c0.647,0.364,0.826,0.947,0.876,1.262
					c0.084,0.539-0.08,1.076-0.449,1.474l-9.105,9.806c-0.939,1.012-0.881,2.594,0.131,3.533c0.481,0.447,1.092,0.668,1.7,0.668
					c0.671,0,1.341-0.269,1.833-0.799l9.105-9.807C117.371,120.193,117.999,118.135,117.677,116.073z"/>
			</g>
		</g>
		<g>
			<g>
				<path d="M95.72,105.114c-0.955-0.999-2.538-1.031-3.534-0.076L81.49,115.288c-0.997,0.956-1.031,2.538-0.075,3.535
					c0.49,0.513,1.147,0.771,1.805,0.771c0.622,0,1.245-0.23,1.729-0.695l10.695-10.249
					C96.642,107.693,96.676,106.111,95.72,105.114z"/>
			</g>
		</g>
		<g>
			<g>
				<path d="M99.357,113.434c-0.956-0.998-2.539-1.03-3.534-0.075l-8.672,8.311c-0.997,0.956-1.031,2.538-0.075,3.535
					c0.491,0.512,1.147,0.77,1.805,0.77c0.622,0,1.245-0.231,1.729-0.695l8.672-8.311
					C100.279,116.014,100.313,114.431,99.357,113.434z"/>
			</g>
		</g>
		<g>
			<g>
				<path d="M137.872,97.929c-0.787-1.137-2.347-1.418-3.479-0.633l-9.18,6.355c-0.529,0.366-1.216,0.415-1.791,0.127l-10.315-5.158
					c-1.236-0.618-2.736-0.118-3.354,1.118c-0.617,1.235-0.116,2.737,1.118,3.354l10.314,5.158c0.957,0.479,1.992,0.714,3.024,0.714
					c1.352,0,2.697-0.405,3.85-1.202l9.18-6.355C138.375,100.621,138.658,99.064,137.872,97.929z"/>
			</g>
		</g>
		<g>
			<g>
				<path d="M135.967,89.638c-0.528-1.276-1.991-1.883-3.266-1.354c-0.44,0.182-0.862,0.413-1.258,0.686l-7.79,5.394l-9.229-4.615
					c-1.236-0.619-2.736-0.118-3.354,1.118c-0.617,1.235-0.116,2.737,1.118,3.354l10.554,5.277c0.354,0.177,0.736,0.264,1.118,0.264
					c0.5,0,0.997-0.15,1.423-0.444l9.005-6.235c0.104-0.071,0.213-0.131,0.326-0.178C135.89,92.375,136.495,90.913,135.967,89.638z"
					/>
			</g>
		</g>
		<g>
			<g>
				<g>
					<g>
						<path d="M106.969,69.009c-17.623,0-31.96,14.337-31.96,31.96s14.337,31.96,31.96,31.96s31.961-14.337,31.961-31.96
							S124.592,69.009,106.969,69.009z M106.969,127.93c-14.866,0-26.96-12.094-26.96-26.96s12.094-26.96,26.96-26.96
							s26.961,12.094,26.961,26.96S121.835,127.93,106.969,127.93z"/>
					</g>
				</g>
			</g>
		</g>
		<g>
			<g>
				<path fill="#87D147" d="M71.33,138.5H59.608c-3.376,0-6.139,2.762-6.139,6.139v11.723c0,3.376,2.762,6.139,6.139,6.139H71.33
					c3.376,0,6.139-2.762,6.139-6.139v-11.723C77.469,141.262,74.707,138.5,71.33,138.5z"/>
			</g>
		</g>
		<g>
			<g>
				<g>
					<g>
						<path d="M71.33,136H59.607c-4.764,0-8.639,3.875-8.639,8.639v11.723c0,4.763,3.875,8.639,8.639,8.639H71.33
							c4.764,0,8.639-3.875,8.639-8.639v-11.723C79.969,139.875,76.094,136,71.33,136z M74.969,156.361
							c0,2.006-1.632,3.639-3.639,3.639H59.607c-2.007,0-3.639-1.632-3.639-3.639v-11.723c0-2.006,1.632-3.639,3.639-3.639H71.33
							c2.007,0,3.639,1.632,3.639,3.639V156.361z"/>
					</g>
				</g>
			</g>
		</g>
		<g>
			<g>
				<path d="M159.98,138.159H91.745c-1.381,0-2.5,1.119-2.5,2.5s1.119,2.5,2.5,2.5h68.235c1.381,0,2.5-1.119,2.5-2.5
					S161.361,138.159,159.98,138.159z"/>
			</g>
		</g>
		<g>
			<g>
				<path d="M159.98,148H91.745c-1.381,0-2.5,1.119-2.5,2.5s1.119,2.5,2.5,2.5h68.235c1.381,0,2.5-1.119,2.5-2.5
					S161.361,148,159.98,148z"/>
			</g>
		</g>
		<g>
			<g>
				<path d="M128.778,157.841H91.745c-1.381,0-2.5,1.119-2.5,2.5s1.119,2.5,2.5,2.5h37.033c1.381,0,2.5-1.119,2.5-2.5
					S130.159,157.841,128.778,157.841z"/>
			</g>
		</g>
		<g>
			<g>
				<path d="M72.686,146.044c-0.977-0.977-2.559-0.976-3.535,0l-4.356,4.356l-1.572-1.572c-0.977-0.977-2.559-0.977-3.535,0
					c-0.977,0.976-0.977,2.559,0,3.535l3.34,3.34c0.488,0.488,1.128,0.732,1.768,0.732s1.279-0.244,1.768-0.732l6.124-6.124
					C73.662,148.603,73.662,147.02,72.686,146.044z"/>
			</g>
		</g>
		<g>
			<g>
				<path fill="#87D147" d="M71.33,171.5H59.608c-3.376,0-6.139,2.762-6.139,6.139v11.723c0,3.376,2.762,6.139,6.139,6.139H71.33
					c3.376,0,6.139-2.762,6.139-6.139v-11.723C77.469,174.262,74.707,171.5,71.33,171.5z"/>
			</g>
		</g>
		<g>
			<g>
				<g>
					<g>
						<path d="M71.33,169H59.607c-4.764,0-8.639,3.875-8.639,8.639v11.723c0,4.763,3.875,8.639,8.639,8.639H71.33
							c4.764,0,8.639-3.875,8.639-8.639v-11.723C79.969,172.875,76.094,169,71.33,169z M74.969,189.361
							c0,2.006-1.632,3.639-3.639,3.639H59.607c-2.007,0-3.639-1.632-3.639-3.639v-11.723c0-2.006,1.632-3.639,3.639-3.639H71.33
							c2.007,0,3.639,1.632,3.639,3.639V189.361z"/>
					</g>
				</g>
			</g>
		</g>
		<g>
			<g>
				<path d="M146.22,171.159H91.745c-1.381,0-2.5,1.119-2.5,2.5s1.119,2.5,2.5,2.5h54.475c1.381,0,2.5-1.119,2.5-2.5
					S147.601,171.159,146.22,171.159z"/>
			</g>
		</g>
		<g>
			<g>
				<path d="M159.98,181H91.745c-1.381,0-2.5,1.119-2.5,2.5s1.119,2.5,2.5,2.5h68.235c1.381,0,2.5-1.119,2.5-2.5
					S161.361,181,159.98,181z"/>
			</g>
		</g>
		<g>
			<g>
				<path d="M128.778,190.841H91.745c-1.381,0-2.5,1.119-2.5,2.5s1.119,2.5,2.5,2.5h37.033c1.381,0,2.5-1.119,2.5-2.5
					S130.159,190.841,128.778,190.841z"/>
			</g>
		</g>
		<g>
			<g>
				<path d="M72.686,179.044c-0.977-0.977-2.559-0.976-3.535,0l-4.356,4.356l-1.572-1.572c-0.977-0.977-2.559-0.977-3.535,0
					c-0.977,0.976-0.977,2.559,0,3.535l3.34,3.34c0.488,0.488,1.128,0.732,1.768,0.732s1.279-0.244,1.768-0.732l6.124-6.124
					C73.662,181.603,73.662,180.02,72.686,179.044z"/>
			</g>
		</g>
		<g>
			<g>
				<path fill="#87D147" d="M71.33,204.5H59.608c-3.376,0-6.139,2.762-6.139,6.139v11.723c0,3.376,2.762,6.139,6.139,6.139H71.33
					c3.376,0,6.139-2.762,6.139-6.139v-11.723C77.469,207.262,74.707,204.5,71.33,204.5z"/>
			</g>
		</g>
		<g>
			<g>
				<g>
					<g>
						<path d="M71.33,202H59.607c-4.764,0-8.639,3.875-8.639,8.639v11.723c0,4.763,3.875,8.639,8.639,8.639H71.33
							c4.764,0,8.639-3.875,8.639-8.639v-11.723C79.969,205.875,76.094,202,71.33,202z M74.969,222.361
							c0,2.006-1.632,3.639-3.639,3.639H59.607c-2.007,0-3.639-1.632-3.639-3.639v-11.723c0-2.006,1.632-3.639,3.639-3.639H71.33
							c2.007,0,3.639,1.632,3.639,3.639V222.361z"/>
					</g>
				</g>
			</g>
		</g>
		<g>
			<g>
				<path d="M159.98,204.159H91.745c-1.381,0-2.5,1.119-2.5,2.5s1.119,2.5,2.5,2.5h68.235c1.381,0,2.5-1.119,2.5-2.5
					S161.361,204.159,159.98,204.159z"/>
			</g>
		</g>
		<g>
			<g>
				<path d="M159.98,214H91.745c-1.381,0-2.5,1.119-2.5,2.5s1.119,2.5,2.5,2.5h68.235c1.381,0,2.5-1.119,2.5-2.5
					S161.361,214,159.98,214z"/>
			</g>
		</g>
		<g>
			<g>
				<path d="M128.778,223.841H91.745c-1.381,0-2.5,1.119-2.5,2.5s1.119,2.5,2.5,2.5h37.033c1.381,0,2.5-1.119,2.5-2.5
					S130.159,223.841,128.778,223.841z"/>
			</g>
		</g>
		<g>
			<g>
				<path d="M72.686,212.044c-0.977-0.977-2.559-0.976-3.535,0l-4.356,4.356l-1.572-1.572c-0.977-0.977-2.559-0.977-3.535,0
					c-0.977,0.976-0.977,2.559,0,3.535l3.34,3.34c0.488,0.488,1.128,0.732,1.768,0.732s1.279-0.244,1.768-0.732l6.124-6.124
					C73.662,214.603,73.662,213.02,72.686,212.044z"/>
			</g>
		</g>
		<g>
			<g>
				<path d="M233.534,217.618c-2.566-2.034-6.042-2.509-9.066-1.24c-1.273,0.534-1.874,1.999-1.34,3.272
					c0.533,1.273,1.998,1.873,3.271,1.339c1.349-0.565,2.893-0.354,4.029,0.548c1.729,1.37,2.021,3.891,0.65,5.62
					c-1.169,1.475-3.239,1.932-4.919,1.089c-1.235-0.62-2.736-0.121-3.355,1.113c-0.619,1.234-0.121,2.737,1.113,3.355
					c1.275,0.64,2.648,0.947,4.01,0.947c2.686,0,5.325-1.196,7.071-3.4C238.08,226.372,237.423,220.7,233.534,217.618z"/>
			</g>
		</g>
		<g>
			<g>
				<g>
					<g>
						<path d="M169.743,161.808c-0.137-1.178-0.725-2.233-1.654-2.97l-5.018-3.976c-0.931-0.738-2.097-1.072-3.271-0.931
							c-1.179,0.136-2.233,0.724-2.971,1.653l-11.782,14.872c-0.737,0.93-1.068,2.091-0.932,3.27s0.725,2.233,1.654,2.969
							l5.019,3.977c0.814,0.646,1.787,0.958,2.754,0.958c1.311,0,2.61-0.577,3.486-1.681l11.782-14.872
							C169.549,164.148,169.88,162.986,169.743,161.808z M153.457,176.407l-4.144-3.283l11.089-13.996l4.144,3.283L153.457,176.407z
							"/>
					</g>
				</g>
			</g>
		</g>
		<g>
			<g>
				<path d="M227.21,220.055c-1.016-8.898-5.444-16.866-12.472-22.434l-45.333-35.918c-1.084-0.857-2.654-0.675-3.513,0.407
					c-0.857,1.083-0.675,2.655,0.407,3.512l45.333,35.918c5.978,4.736,9.746,11.513,10.609,19.082
					c0.831,7.281-1.187,14.394-5.683,20.029c-4.806,6.023-11.975,9.773-19.67,10.288c-7.794,0.517-15.229-2.192-20.92-7.645
					c-9.378-8.981-11.069-23.956-3.935-34.831c1.207-1.838,2.619-3.523,4.199-5.009c1.574-1.479,2.425-3.563,2.334-5.715
					c-0.091-2.143-1.107-4.136-2.789-5.469l-18.841-14.928c-1.083-0.857-2.655-0.675-3.512,0.407
					c-0.858,1.083-0.676,2.655,0.406,3.512l18.841,14.928c0.55,0.436,0.869,1.061,0.899,1.761c0.029,0.709-0.241,1.37-0.764,1.861
					c-1.865,1.754-3.532,3.743-4.954,5.909c-8.574,13.069-6.616,30.39,4.655,41.185c6.173,5.913,14.082,9.097,22.478,9.097
					c0.74,0,1.487-0.025,2.234-0.075c9.094-0.608,17.565-5.04,23.245-12.158C225.799,237.088,228.193,228.666,227.21,220.055z"/>
			</g>
		</g>
		<g>
			<g>
				<g>
					<g>
						<path d="M217.405,220.911c-0.692-5.977-3.664-11.32-8.368-15.047c-4.704-3.727-10.585-5.4-16.562-4.706
							c-5.977,0.692-11.32,3.665-15.047,8.368c-7.704,9.724-6.062,23.903,3.662,31.608c4.127,3.269,9.055,4.855,13.95,4.855
							c6.642,0,13.224-2.92,17.659-8.518C216.427,232.768,218.098,226.886,217.405,220.911z M208.78,234.367
							c-5.99,7.563-17.02,8.842-24.584,2.849c-7.563-5.993-8.841-17.021-2.848-24.584c2.896-3.657,7.053-5.968,11.702-6.506
							c0.688-0.08,1.375-0.119,2.057-0.119c3.927,0,7.709,1.308,10.824,3.777c3.657,2.898,5.969,7.054,6.507,11.704
							C212.978,226.135,211.679,230.71,208.78,234.367z"/>
					</g>
				</g>
			</g>
		</g>
		<g>
			<g>
				<path d="M192.791,181.281c-1.081-0.857-2.654-0.674-3.512,0.407l-2.906,3.667l-10.188-8.073l2.916-3.681
					c0.858-1.082,0.676-2.655-0.406-3.512c-1.083-0.857-2.655-0.675-3.512,0.407l-3.039,3.835c-1.645,2.077-1.293,5.105,0.783,6.75
					l10.494,8.315c0.882,0.698,1.934,1.036,2.979,1.036c1.419,0,2.824-0.624,3.771-1.819l3.026-3.819
					C194.055,183.711,193.873,182.139,192.791,181.281z"/>
			</g>
		</g>
		<g>
			<g>
				<path fill="#70D6F9" d="M74.514,5.5h-2.3V3.2c0-1.8-1.4-3.2-3.2-3.2c-1.8,0-3.2,1.5-3.2,3.2v2.3h-2.3c-1.8,0-3.2,1.4-3.2,3.2
					s1.5,3.2,3.2,3.2h2.3v2.3c0,1.8,1.4,3.2,3.2,3.2c1.8,0,3.2-1.5,3.2-3.2v-2.3h2.3c1.8,0,3.2-1.4,3.2-3.2S76.214,5.5,74.514,5.5z"
					/>
			</g>
		</g>
		<g>
			<g>
				<path fill="#F5C84C" d="M42.914,15.5c-1.878,0-3.4,1.522-3.4,3.4c0,1.878,1.522,3.4,3.4,3.4s3.4-1.522,3.4-3.4
					C46.314,17.022,44.792,15.5,42.914,15.5z"/>
			</g>
		</g>
		<g>
			<g>
				<path fill="#87D147" d="M158.914,15.5c-1.878,0-3.4,1.522-3.4,3.4c0,1.878,1.522,3.4,3.4,3.4s3.4-1.522,3.4-3.4
					C162.314,17.022,160.792,15.5,158.914,15.5z"/>
			</g>
		</g>
		<g>
			<g>
				<path fill="#FC657E" d="M206.914,140.5c-1.878,0-3.4,1.522-3.4,3.4c0,1.878,1.522,3.4,3.4,3.4s3.4-1.522,3.4-3.4
					C210.314,142.022,208.792,140.5,206.914,140.5z"/>
			</g>
		</g>
	</g>
</g>
<g id="Layer_46">
</g>
<g id="Layer_47">
</g>
<g id="Layer_48">
</g>
<g id="Layer_49">
</g>
<g id="Layer_50">
</g>
<g id="Layer_51">
</g>
<g id="Layer_52">
</g>
<g id="Layer_53">
</g>
<g id="Layer_54">
</g>
<g id="Layer_55">
</g>
<g id="Layer_56">
</g>
<g id="Layer_57">
</g>
<g id="Layer_58">
</g>
<g id="Layer_59">
</g>
<g id="Layer_60">
</g>
<g id="Layer_61">
</g>
<g id="Layer_62">
</g>
<g id="Layer_63">
</g>
<g id="Layer_64">
</g>
<g id="Layer_65">
</g>
<g id="Layer_66">
</g>
<g id="Layer_67">
</g>
<g id="Layer_68">
</g>
<g id="Layer_69">
</g>
<g id="Layer_70">
</g>
<g id="Layer_71">
</g>
<g id="Layer_72">
</g>
<g id="Layer_73">
</g>
<g id="Layer_74">
</g>
<g id="Layer_75">
</g>
</svg>
