<?xml version="1.0" encoding="utf-8"?>
<!-- Generator: Adobe Illustrator 21.0.0, SVG Export Plug-In . SVG Version: 6.00 Build 0)  -->
<svg version="1.1" id="Layer_1" xmlns="http://www.w3.org/2000/svg" xmlns:xlink="http://www.w3.org/1999/xlink" x="0px" y="0px"
	 viewBox="0 0 64 64" style="enable-background:new 0 0 64 64;" xml:space="preserve">
<style type="text/css">
	.st0{fill:#039BE5;stroke:#0277BD;stroke-linecap:round;stroke-linejoin:round;stroke-miterlimit:10;}
	.st1{fill:#81D4FA;stroke:#0277BD;stroke-linecap:round;stroke-linejoin:round;stroke-miterlimit:10;}
	.st2{fill:#EC407A;stroke:#0277BD;stroke-linecap:round;stroke-linejoin:round;stroke-miterlimit:10;}
	.st3{fill:#FFA726;stroke:#0277BD;stroke-linecap:round;stroke-linejoin:round;stroke-miterlimit:10;}
	.st4{fill:#80CBC4;stroke:#0277BD;stroke-linecap:round;stroke-linejoin:round;stroke-miterlimit:10;}
	.st5{fill:none;stroke:#F48FB1;stroke-linecap:round;stroke-linejoin:round;stroke-miterlimit:10;}
	.st6{fill:none;stroke:#FFCC80;stroke-linecap:round;stroke-linejoin:round;stroke-miterlimit:10;}
	.st7{fill:none;stroke:#E0F2F1;stroke-linecap:round;stroke-linejoin:round;stroke-miterlimit:10;}
	.st8{fill:none;stroke:#26A69A;stroke-linecap:round;stroke-linejoin:round;stroke-miterlimit:10;}
	.st9{fill:none;stroke:#F57C00;stroke-linecap:round;stroke-linejoin:round;stroke-miterlimit:10;}
	.st10{fill:none;stroke:#D81B60;stroke-linecap:round;stroke-linejoin:round;stroke-miterlimit:10;}
	.st11{fill:#EEEEEE;stroke:#0277BD;stroke-linecap:round;stroke-linejoin:round;stroke-miterlimit:10;}
	.st12{fill:none;stroke:#BDBDBD;stroke-linecap:round;stroke-linejoin:round;stroke-miterlimit:10;}
	.st13{fill:none;stroke:#E1F5FE;stroke-linecap:round;stroke-linejoin:round;stroke-miterlimit:10;}
	.st14{fill:none;stroke:#FFFFFF;stroke-linecap:round;stroke-linejoin:round;stroke-miterlimit:10;}
	.st15{fill:none;stroke:#29B6F6;stroke-linecap:round;stroke-linejoin:round;stroke-miterlimit:10;}
	.st16{fill:none;stroke:#4FC3F7;stroke-linecap:round;stroke-linejoin:round;stroke-miterlimit:10;}
	.st17{fill:none;stroke:#0277BD;stroke-linecap:round;stroke-linejoin:round;stroke-miterlimit:10;}
</style>
<g id="Time_Tracking">
	<g>
		<path class="st11" d="M55.8,19.7l-7.5-7.5c-0.3-0.3-0.3-0.7,0-1l0.4-0.4c0.3-0.3,0.7-0.3,1,0l7.5,7.5c0.3,0.3,0.3,0.7,0,1
			l-0.4,0.4C56.5,20,56.1,20,55.8,19.7z"/>
		<rect x="45.2" y="17.8" transform="matrix(0.7071 -0.7071 0.7071 0.7071 1.1134 40.3328)" class="st11" width="8" height="2"/>
		<rect x="27.6" y="7.5" class="st11" width="8" height="8"/>
		<path class="st11" d="M37.8,7.5H25.3c-0.7,0-1.2-0.6-1.2-1.2V3.8c0-0.7,0.6-1.2,1.2-1.2h12.5c0.7,0,1.2,0.6,1.2,1.2v2.5
			C39.1,6.9,38.5,7.5,37.8,7.5z"/>
		<g>
			<circle class="st1" cx="31.6" cy="36.5" r="25"/>
		</g>
		<g>
			<ellipse transform="matrix(0.7071 -0.7071 0.7071 0.7071 -16.5643 33.0104)" class="st11" cx="31.6" cy="36.5" rx="20" ry="20"/>
		</g>
		<g>
			<path class="st12" d="M44.3,49.2c-7,7-18.4,7-25.5,0"/>
		</g>
		<g>
			<path class="st14" d="M18.8,23.8c7-7,18.4-7,25.5,0"/>
		</g>
		<path class="st2" d="M31.6,16.5v20h20c0-5.1-2-10.2-5.9-14.1C41.8,18.5,36.7,16.5,31.6,16.5z"/>
		<g>
			<path class="st5" d="M31.6,18.5c4.6,0,9.2,1.8,12.7,5.3"/>
		</g>
		<path class="st17" d="M31.6,16.5v20h20c0-5.1-2-10.2-5.9-14.1C41.8,18.5,36.7,16.5,31.6,16.5z"/>
		<path class="st3" d="M31.6,20.5L31.6,20.5c1.1,0,2,0.9,2,2v14h-4v-14C29.6,21.4,30.5,20.5,31.6,20.5z"/>
		<ellipse transform="matrix(0.7071 -0.7071 0.7071 0.7071 -16.564 33.0104)" class="st0" cx="31.6" cy="36.5" rx="4" ry="4"/>
	</g>
</g>
</svg>
